<mxfile host="app.diagrams.net" agent="Mozilla/5.0 (Macintosh; Intel Mac OS X 10.15; rv:133.0) Gecko/20100101 Firefox/133.0" version="26.0.11">
  <diagram name="Page-1" id="E2U8NR4Kb54IGn0cMXsN">
    <mxGraphModel dx="1509" dy="698" grid="1" gridSize="10" guides="1" tooltips="1" connect="1" arrows="1" fold="1" page="1" pageScale="1" pageWidth="1100" pageHeight="850" math="0" shadow="0">
      <root>
        <mxCell id="0" />
        <mxCell id="1" parent="0" />
        <mxCell id="awNKZNQ3Zd5kEab9rENJ-1" value="Start" style="rounded=1;arcSize=20;strokeWidth=2" vertex="1" parent="1">
          <mxGeometry x="744" y="20" width="65" height="54" as="geometry" />
        </mxCell>
        <mxCell id="awNKZNQ3Zd5kEab9rENJ-2" value="Initialize Forest Grid" style="whiteSpace=wrap;strokeWidth=2;" vertex="1" parent="1">
          <mxGeometry x="673" y="124" width="208" height="54" as="geometry" />
        </mxCell>
        <mxCell id="awNKZNQ3Zd5kEab9rENJ-3" value="Place Lake - Bottom to Middle" style="whiteSpace=wrap;strokeWidth=2;" vertex="1" parent="1">
          <mxGeometry x="646" y="228" width="260" height="78" as="geometry" />
        </mxCell>
        <mxCell id="awNKZNQ3Zd5kEab9rENJ-4" value="Display Initial Forest" style="whiteSpace=wrap;strokeWidth=2;" vertex="1" parent="1">
          <mxGeometry x="673" y="356" width="207" height="54" as="geometry" />
        </mxCell>
        <mxCell id="awNKZNQ3Zd5kEab9rENJ-5" value="Simulation Running?" style="rhombus;strokeWidth=2;whiteSpace=wrap;" vertex="1" parent="1">
          <mxGeometry x="678" y="460" width="197" height="197" as="geometry" />
        </mxCell>
        <mxCell id="awNKZNQ3Zd5kEab9rENJ-6" value="Check Fire Spread" style="whiteSpace=wrap;strokeWidth=2;" vertex="1" parent="1">
          <mxGeometry x="332" y="730" width="189" height="54" as="geometry" />
        </mxCell>
        <mxCell id="awNKZNQ3Zd5kEab9rENJ-7" value="Is Tree Next to Fire?" style="rhombus;strokeWidth=2;whiteSpace=wrap;" vertex="1" parent="1">
          <mxGeometry x="328" y="834" width="197" height="197" as="geometry" />
        </mxCell>
        <mxCell id="awNKZNQ3Zd5kEab9rENJ-8" value="Tree Catches Fire" style="whiteSpace=wrap;strokeWidth=2;" vertex="1" parent="1">
          <mxGeometry x="206" y="1105" width="185" height="54" as="geometry" />
        </mxCell>
        <mxCell id="awNKZNQ3Zd5kEab9rENJ-9" value="Tree Remains Unburned" style="whiteSpace=wrap;strokeWidth=2;" vertex="1" parent="1">
          <mxGeometry x="473" y="1105" width="229" height="54" as="geometry" />
        </mxCell>
        <mxCell id="awNKZNQ3Zd5kEab9rENJ-10" value="Is There Water Nearby?" style="rhombus;strokeWidth=2;whiteSpace=wrap;" vertex="1" parent="1">
          <mxGeometry x="189" y="1209" width="220" height="220" as="geometry" />
        </mxCell>
        <mxCell id="awNKZNQ3Zd5kEab9rENJ-11" value="Fire Stops" style="whiteSpace=wrap;strokeWidth=2;" vertex="1" parent="1">
          <mxGeometry x="386" y="1503" width="131" height="54" as="geometry" />
        </mxCell>
        <mxCell id="awNKZNQ3Zd5kEab9rENJ-12" value="Fire Spreads" style="whiteSpace=wrap;strokeWidth=2;" vertex="1" parent="1">
          <mxGeometry x="72" y="1503" width="148" height="54" as="geometry" />
        </mxCell>
        <mxCell id="awNKZNQ3Zd5kEab9rENJ-13" value="Tree Burns to Empty Space" style="whiteSpace=wrap;strokeWidth=2;" vertex="1" parent="1">
          <mxGeometry x="20" y="1619" width="251" height="54" as="geometry" />
        </mxCell>
        <mxCell id="awNKZNQ3Zd5kEab9rENJ-14" value="Tree Near Water Remains Safe" style="whiteSpace=wrap;strokeWidth=2;" vertex="1" parent="1">
          <mxGeometry x="321" y="1607" width="260" height="78" as="geometry" />
        </mxCell>
        <mxCell id="awNKZNQ3Zd5kEab9rENJ-15" value="Check Tree Growth" style="whiteSpace=wrap;strokeWidth=2;" vertex="1" parent="1">
          <mxGeometry x="200" y="1735" width="197" height="54" as="geometry" />
        </mxCell>
        <mxCell id="awNKZNQ3Zd5kEab9rENJ-16" value="Is Space Empty?" style="rhombus;strokeWidth=2;whiteSpace=wrap;" vertex="1" parent="1">
          <mxGeometry x="215" y="1839" width="167" height="167" as="geometry" />
        </mxCell>
        <mxCell id="awNKZNQ3Zd5kEab9rENJ-17" value="Tree Grows" style="whiteSpace=wrap;strokeWidth=2;" vertex="1" parent="1">
          <mxGeometry x="530" y="2079" width="140" height="54" as="geometry" />
        </mxCell>
        <mxCell id="awNKZNQ3Zd5kEab9rENJ-18" value="Space Remains Same" style="whiteSpace=wrap;strokeWidth=2;" vertex="1" parent="1">
          <mxGeometry x="860" y="2079" width="208" height="54" as="geometry" />
        </mxCell>
        <mxCell id="awNKZNQ3Zd5kEab9rENJ-19" value="End Simulation" style="whiteSpace=wrap;strokeWidth=2;" vertex="1" parent="1">
          <mxGeometry x="634" y="730" width="167" height="54" as="geometry" />
        </mxCell>
        <mxCell id="awNKZNQ3Zd5kEab9rENJ-20" value="" style="curved=1;startArrow=none;endArrow=block;exitX=0.5;exitY=1;entryX=0.5;entryY=0;rounded=0;" edge="1" parent="1" source="awNKZNQ3Zd5kEab9rENJ-1" target="awNKZNQ3Zd5kEab9rENJ-2">
          <mxGeometry relative="1" as="geometry">
            <Array as="points" />
          </mxGeometry>
        </mxCell>
        <mxCell id="awNKZNQ3Zd5kEab9rENJ-21" value="" style="curved=1;startArrow=none;endArrow=block;exitX=0.5;exitY=1;entryX=0.5;entryY=0;rounded=0;" edge="1" parent="1" source="awNKZNQ3Zd5kEab9rENJ-2" target="awNKZNQ3Zd5kEab9rENJ-3">
          <mxGeometry relative="1" as="geometry">
            <Array as="points" />
          </mxGeometry>
        </mxCell>
        <mxCell id="awNKZNQ3Zd5kEab9rENJ-22" value="" style="curved=1;startArrow=none;endArrow=block;exitX=0.5;exitY=1;entryX=0.5;entryY=0;rounded=0;" edge="1" parent="1" source="awNKZNQ3Zd5kEab9rENJ-3" target="awNKZNQ3Zd5kEab9rENJ-4">
          <mxGeometry relative="1" as="geometry">
            <Array as="points" />
          </mxGeometry>
        </mxCell>
        <mxCell id="awNKZNQ3Zd5kEab9rENJ-23" value="" style="curved=1;startArrow=none;endArrow=block;exitX=0.5;exitY=1;entryX=0.5;entryY=0;rounded=0;" edge="1" parent="1" source="awNKZNQ3Zd5kEab9rENJ-4" target="awNKZNQ3Zd5kEab9rENJ-5">
          <mxGeometry relative="1" as="geometry">
            <Array as="points" />
          </mxGeometry>
        </mxCell>
        <mxCell id="awNKZNQ3Zd5kEab9rENJ-24" value="Yes" style="curved=1;startArrow=none;endArrow=block;exitX=0;exitY=0.69;entryX=0.5;entryY=0.01;rounded=0;" edge="1" parent="1" source="awNKZNQ3Zd5kEab9rENJ-5" target="awNKZNQ3Zd5kEab9rENJ-6">
          <mxGeometry relative="1" as="geometry">
            <Array as="points">
              <mxPoint x="427" y="694" />
            </Array>
          </mxGeometry>
        </mxCell>
        <mxCell id="awNKZNQ3Zd5kEab9rENJ-25" value="" style="curved=1;startArrow=none;endArrow=block;exitX=0.5;exitY=1.01;entryX=0.5;entryY=0;rounded=0;" edge="1" parent="1" source="awNKZNQ3Zd5kEab9rENJ-6" target="awNKZNQ3Zd5kEab9rENJ-7">
          <mxGeometry relative="1" as="geometry">
            <Array as="points" />
          </mxGeometry>
        </mxCell>
        <mxCell id="awNKZNQ3Zd5kEab9rENJ-26" value="Yes" style="curved=1;startArrow=none;endArrow=block;exitX=0.03;exitY=1;entryX=0.5;entryY=0.01;rounded=0;" edge="1" parent="1" source="awNKZNQ3Zd5kEab9rENJ-7" target="awNKZNQ3Zd5kEab9rENJ-8">
          <mxGeometry relative="1" as="geometry">
            <Array as="points">
              <mxPoint x="298" y="1069" />
            </Array>
          </mxGeometry>
        </mxCell>
        <mxCell id="awNKZNQ3Zd5kEab9rENJ-27" value="No" style="curved=1;startArrow=none;endArrow=block;exitX=1;exitY=0.93;entryX=0.5;entryY=0.01;rounded=0;" edge="1" parent="1" source="awNKZNQ3Zd5kEab9rENJ-7" target="awNKZNQ3Zd5kEab9rENJ-9">
          <mxGeometry relative="1" as="geometry">
            <Array as="points">
              <mxPoint x="588" y="1069" />
            </Array>
          </mxGeometry>
        </mxCell>
        <mxCell id="awNKZNQ3Zd5kEab9rENJ-28" value="" style="curved=1;startArrow=none;endArrow=block;exitX=0.5;exitY=1.01;entryX=0.5;entryY=0;rounded=0;" edge="1" parent="1" source="awNKZNQ3Zd5kEab9rENJ-8" target="awNKZNQ3Zd5kEab9rENJ-10">
          <mxGeometry relative="1" as="geometry">
            <Array as="points" />
          </mxGeometry>
        </mxCell>
        <mxCell id="awNKZNQ3Zd5kEab9rENJ-29" value="Yes" style="curved=1;startArrow=none;endArrow=block;exitX=1;exitY=0.98;entryX=0.5;entryY=-0.01;rounded=0;" edge="1" parent="1" source="awNKZNQ3Zd5kEab9rENJ-10" target="awNKZNQ3Zd5kEab9rENJ-11">
          <mxGeometry relative="1" as="geometry">
            <Array as="points">
              <mxPoint x="451" y="1466" />
            </Array>
          </mxGeometry>
        </mxCell>
        <mxCell id="awNKZNQ3Zd5kEab9rENJ-30" value="No" style="curved=1;startArrow=none;endArrow=block;exitX=0;exitY=0.98;entryX=0.5;entryY=-0.01;rounded=0;" edge="1" parent="1" source="awNKZNQ3Zd5kEab9rENJ-10" target="awNKZNQ3Zd5kEab9rENJ-12">
          <mxGeometry relative="1" as="geometry">
            <Array as="points">
              <mxPoint x="146" y="1466" />
            </Array>
          </mxGeometry>
        </mxCell>
        <mxCell id="awNKZNQ3Zd5kEab9rENJ-31" value="" style="curved=1;startArrow=none;endArrow=block;exitX=0.5;exitY=0.99;entryX=0.5;entryY=-0.01;rounded=0;" edge="1" parent="1" source="awNKZNQ3Zd5kEab9rENJ-12" target="awNKZNQ3Zd5kEab9rENJ-13">
          <mxGeometry relative="1" as="geometry">
            <Array as="points" />
          </mxGeometry>
        </mxCell>
        <mxCell id="awNKZNQ3Zd5kEab9rENJ-32" value="" style="curved=1;startArrow=none;endArrow=block;exitX=0.5;exitY=0.99;entryX=0.5;entryY=-0.01;rounded=0;" edge="1" parent="1" source="awNKZNQ3Zd5kEab9rENJ-11" target="awNKZNQ3Zd5kEab9rENJ-14">
          <mxGeometry relative="1" as="geometry">
            <Array as="points" />
          </mxGeometry>
        </mxCell>
        <mxCell id="awNKZNQ3Zd5kEab9rENJ-33" value="" style="curved=1;startArrow=none;endArrow=block;exitX=0.5;exitY=0.99;entryX=0.1;entryY=-0.01;rounded=0;" edge="1" parent="1" source="awNKZNQ3Zd5kEab9rENJ-13" target="awNKZNQ3Zd5kEab9rENJ-15">
          <mxGeometry relative="1" as="geometry">
            <Array as="points">
              <mxPoint x="146" y="1710" />
            </Array>
          </mxGeometry>
        </mxCell>
        <mxCell id="awNKZNQ3Zd5kEab9rENJ-34" value="" style="curved=1;startArrow=none;endArrow=block;exitX=0.5;exitY=0.99;entryX=0.9;entryY=-0.01;rounded=0;" edge="1" parent="1" source="awNKZNQ3Zd5kEab9rENJ-14" target="awNKZNQ3Zd5kEab9rENJ-15">
          <mxGeometry relative="1" as="geometry">
            <Array as="points">
              <mxPoint x="451" y="1710" />
            </Array>
          </mxGeometry>
        </mxCell>
        <mxCell id="awNKZNQ3Zd5kEab9rENJ-35" value="" style="curved=1;startArrow=none;endArrow=block;exitX=0.5;exitY=0.99;entryX=0.5;entryY=0;rounded=0;" edge="1" parent="1" source="awNKZNQ3Zd5kEab9rENJ-15" target="awNKZNQ3Zd5kEab9rENJ-16">
          <mxGeometry relative="1" as="geometry">
            <Array as="points" />
          </mxGeometry>
        </mxCell>
        <mxCell id="awNKZNQ3Zd5kEab9rENJ-36" value="Yes" style="curved=1;startArrow=none;endArrow=block;exitX=0.5;exitY=1;entryX=0;entryY=0.23;rounded=0;" edge="1" parent="1" source="awNKZNQ3Zd5kEab9rENJ-16" target="awNKZNQ3Zd5kEab9rENJ-17">
          <mxGeometry relative="1" as="geometry">
            <Array as="points">
              <mxPoint x="298" y="2042" />
            </Array>
          </mxGeometry>
        </mxCell>
        <mxCell id="awNKZNQ3Zd5kEab9rENJ-37" value="No" style="curved=1;startArrow=none;endArrow=block;exitX=1;exitY=0.6;entryX=0.3;entryY=0;rounded=0;" edge="1" parent="1" source="awNKZNQ3Zd5kEab9rENJ-16" target="awNKZNQ3Zd5kEab9rENJ-18">
          <mxGeometry relative="1" as="geometry">
            <Array as="points">
              <mxPoint x="868" y="2042" />
            </Array>
          </mxGeometry>
        </mxCell>
        <mxCell id="awNKZNQ3Zd5kEab9rENJ-38" value="" style="curved=1;startArrow=none;endArrow=block;exitX=0.53;exitY=0;entryX=1;entryY=0.83;rounded=0;" edge="1" parent="1" source="awNKZNQ3Zd5kEab9rENJ-18" target="awNKZNQ3Zd5kEab9rENJ-5">
          <mxGeometry relative="1" as="geometry">
            <Array as="points">
              <mxPoint x="980" y="2042" />
              <mxPoint x="980" y="694" />
            </Array>
          </mxGeometry>
        </mxCell>
        <mxCell id="awNKZNQ3Zd5kEab9rENJ-39" value="" style="curved=1;startArrow=none;endArrow=block;exitX=1;exitY=0.15;entryX=0.72;entryY=1;rounded=0;" edge="1" parent="1" source="awNKZNQ3Zd5kEab9rENJ-17" target="awNKZNQ3Zd5kEab9rENJ-5">
          <mxGeometry relative="1" as="geometry">
            <Array as="points">
              <mxPoint x="836" y="2042" />
              <mxPoint x="836" y="694" />
            </Array>
          </mxGeometry>
        </mxCell>
        <mxCell id="awNKZNQ3Zd5kEab9rENJ-40" value="No" style="curved=1;startArrow=none;endArrow=block;exitX=0.28;exitY=1;entryX=0.5;entryY=0.01;rounded=0;" edge="1" parent="1" source="awNKZNQ3Zd5kEab9rENJ-5" target="awNKZNQ3Zd5kEab9rENJ-19">
          <mxGeometry relative="1" as="geometry">
            <Array as="points">
              <mxPoint x="717" y="694" />
            </Array>
          </mxGeometry>
        </mxCell>
        <mxCell id="awNKZNQ3Zd5kEab9rENJ-41" value="&lt;font style=&quot;font-size: 14px;&quot; face=&quot;Times New Roman&quot;&gt;&lt;b&gt;Julio Pochet Edmead&lt;/b&gt;&lt;/font&gt;" style="text;html=1;align=center;verticalAlign=middle;whiteSpace=wrap;rounded=0;" vertex="1" parent="1">
          <mxGeometry x="404.25" y="94" width="131.5" height="30" as="geometry" />
        </mxCell>
        <mxCell id="awNKZNQ3Zd5kEab9rENJ-43" value="&lt;h1 tabindex=&quot;-1&quot; id=&quot;pageTitleHeader&quot;&gt;&lt;font style=&quot;font-size: 18px;&quot; face=&quot;Times New Roman&quot;&gt;&lt;span id=&quot;pageTitleText&quot;&gt;Module 6.2 Assignment&lt;/span&gt;&lt;/font&gt;&lt;/h1&gt;" style="text;html=1;align=center;verticalAlign=middle;whiteSpace=wrap;rounded=0;" vertex="1" parent="1">
          <mxGeometry x="378.5" y="50" width="183" height="30" as="geometry" />
        </mxCell>
      </root>
    </mxGraphModel>
  </diagram>
</mxfile>
